<svg width="80" height="80" viewBox="0 0 80 80" fill="none" xmlns="http://www.w3.org/2000/svg">
  <circle cx="40" cy="40" r="40" fill="#F6F6F6" />
  <path
    d="M39.9999 47.4773C43.3677 47.4773 46.0979 44.7471 46.0979 41.3793C46.0979 38.0114 43.3677 35.2813 39.9999 35.2813C36.632 35.2813 33.9019 38.0114 33.9019 41.3793C33.9019 44.7471 36.632 47.4773 39.9999 47.4773Z"
    fill="#595959" />
  <path
    d="M58.2938 26.5699H52.5808C52.215 26.57 51.8584 26.4549 51.5617 26.241C51.2649 26.0271 51.043 25.7253 50.9274 25.3782L50.3768 23.7248C50.1453 23.0309 49.7014 22.4275 49.1079 22.0001C48.5144 21.5726 47.8014 21.3428 47.07 21.343H32.9278C32.1965 21.3432 31.4838 21.5735 30.8906 22.0013C30.2974 22.4291 29.8538 23.0326 29.6227 23.7265L29.0722 25.3782C28.9566 25.7253 28.7346 26.0271 28.4379 26.241C28.1411 26.4549 27.7845 26.57 27.4187 26.5699H21.7058C20.7816 26.5699 19.8953 26.937 19.2418 27.5905C18.5883 28.244 18.2212 29.1303 18.2212 30.0545V50.9619C18.2212 51.8861 18.5883 52.7724 19.2418 53.4259C19.8953 54.0794 20.7816 54.4465 21.7058 54.4465H58.2938C59.2179 54.4465 60.1043 54.0794 60.7577 53.4259C61.4112 52.7724 61.7784 51.8861 61.7784 50.9619V30.0545C61.7784 29.1303 61.4112 28.244 60.7577 27.5905C60.1043 26.937 59.2179 26.5699 58.2938 26.5699ZM39.9998 50.9619C34.7172 50.9619 30.4172 46.662 30.4172 41.3793C30.4172 36.0967 34.7172 31.7968 39.9998 31.7968C45.2824 31.7968 49.5823 36.0967 49.5823 41.3793C49.5823 46.662 45.2824 50.9619 39.9998 50.9619ZM50.4535 33.5391C49.9914 33.5391 49.5483 33.3555 49.2215 33.0288C48.8948 32.702 48.7112 32.2589 48.7112 31.7968C48.7112 31.3347 48.8948 30.8915 49.2215 30.5648C49.5483 30.238 49.9914 30.0545 50.4535 30.0545C50.9156 30.0545 51.3587 30.238 51.6855 30.5648C52.0122 30.8915 52.1958 31.3347 52.1958 31.7968C52.1958 32.2589 52.0122 32.702 51.6855 33.0288C51.3587 33.3555 50.9156 33.5391 50.4535 33.5391Z"
    fill="#595959" />
</svg>