<svg width="270" height="270" viewBox="0 0 270 270" fill="none" xmlns="http://www.w3.org/2000/svg">
  <circle cx="135" cy="135" r="135" fill="#E6E6E6" />
  <path
    d="M195.597 170.854C195.597 197.444 168.803 219 135.75 219C102.697 219 75.9019 197.444 75.9019 170.854C75.9019 144.263 102.697 122.707 135.75 122.707C168.803 122.707 195.597 144.263 195.597 170.854Z"
    fill="#B6B6B6" />
  <path
    d="M96.6301 95.638C100.392 109.521 93.6858 123.36 81.6504 126.548C69.615 129.736 56.8084 121.067 53.0461 107.184C49.2837 93.3017 55.9903 79.4628 68.0257 76.2744C80.0611 73.0859 92.8677 81.7553 96.6301 95.638Z"
    fill="#B6B6B6" />
  <path
    d="M158.292 76.0976C158.292 89.9586 147.986 101.195 135.273 101.195C122.561 101.195 112.255 89.9586 112.255 76.0976C112.255 62.2366 122.561 51 135.273 51C147.986 51 158.292 62.2366 158.292 76.0976Z"
    fill="#B6B6B6" />
  <path
    d="M216.954 107.184C213.192 121.067 200.385 129.736 188.35 126.548C176.314 123.36 169.608 109.521 173.37 95.638C177.132 81.7553 189.939 73.0859 201.974 76.2744C214.01 79.4628 220.716 93.3017 216.954 107.184Z"
    fill="#B6B6B6" />
</svg>