<svg width="148" height="44" viewBox="0 0 148 44" fill="none" xmlns="http://www.w3.org/2000/svg">
  <path
    d="M38.7706 31.5513C38.7706 38.4265 31.6361 44 22.8351 44C14.0342 44 6.89964 38.4265 6.89964 31.5513C6.89964 24.6761 14.0342 19.1027 22.8351 19.1027C31.6361 19.1027 38.7706 24.6761 38.7706 31.5513Z"
    fill="#FA8A3A" />
  <path
    d="M12.4189 12.1037C13.4207 15.6932 11.6349 19.2713 8.43028 20.0957C5.22566 20.9201 1.81569 18.6786 0.813899 15.0891C-0.187891 11.4996 1.59786 7.92144 4.80248 7.09704C8.00711 6.27264 11.4171 8.51419 12.4189 12.1037Z"
    fill="#FA8A3A" />
  <path
    d="M28.8373 7.05132C28.8373 10.6352 26.0933 13.5405 22.7083 13.5405C19.3233 13.5405 16.5793 10.6352 16.5793 7.05132C16.5793 3.46744 19.3233 0.562134 22.7083 0.562134C26.0933 0.562134 28.8373 3.46744 28.8373 7.05132Z"
    fill="#FA8A3A" />
  <path
    d="M44.4571 15.0891C43.4553 18.6786 40.0454 20.9201 36.8407 20.0957C33.6361 19.2713 31.8504 15.6932 32.8521 12.1037C33.8539 8.51418 37.2639 6.27264 40.4685 7.09704C43.6732 7.92144 45.4589 11.4996 44.4571 15.0891Z"
    fill="#FA8A3A" />
  <path
    d="M73.4746 20.3952H76.7543V36.303C76.7543 37.675 77.8221 38.3795 78.8899 38.3795C79.9577 38.3795 80.9874 37.675 80.9874 36.303V7.19435C80.9874 5.82235 79.9577 5.11781 78.8899 5.11781C77.8221 5.11781 76.7543 5.82235 76.7543 7.19435V16.8354H73.4746V7.34267C73.4746 5.97067 72.5211 5.26613 71.4533 5.26613C70.3855 5.26613 69.3558 5.97067 69.3558 7.34267V35.5614C69.3558 36.9334 70.3855 37.6379 71.4533 37.6379C72.5211 37.6379 73.4746 36.9334 73.4746 35.5614V20.3952ZM66.5338 12.5711C66.5338 9.0484 64.4744 7.41684 61.2328 7.41684H54.292C53.0336 7.41684 52.3852 8.30678 52.3852 9.19673C52.3852 10.0867 53.0336 10.9766 54.292 10.9766H60.2794C61.3472 10.9766 62.3388 11.4216 62.3388 12.8678V15.7601C62.3388 20.4323 58.487 23.8438 52.8429 25.6978C52.042 25.9574 51.6606 26.6248 51.6606 27.2923C51.6606 28.4047 52.6141 29.5172 54.0251 29.0722C61.6142 26.7732 66.5338 22.0268 66.5338 15.7601V12.5711Z"
    fill="#FA8A3A" />
  <path
    d="M103.369 28.5531C104.589 28.5531 105.199 27.6631 105.199 26.7732C105.199 25.9203 104.589 25.0303 103.369 25.0303H92.9577C91.8899 25.0303 91.089 24.4 91.089 22.9538V12.052C91.089 11.2733 91.5085 10.9025 92.3094 10.9025H101.92C103.178 10.9025 103.788 10.0125 103.788 9.08548C103.788 8.23262 103.178 7.34267 101.92 7.34267H90.8221C88.0763 7.34267 86.8559 8.67759 86.8559 11.162V23.0651C86.8559 26.5878 89.0297 28.5531 92.2712 28.5531H103.369ZM113.666 7.19435C113.666 5.82235 112.598 5.11781 111.53 5.11781C110.462 5.11781 109.394 5.82235 109.394 7.19435V15.7972H101.576C100.356 15.7972 99.7459 16.6871 99.7459 17.5771C99.7459 18.467 100.356 19.3569 101.576 19.3569H109.394V36.2659C109.394 37.6379 110.462 38.3425 111.53 38.3425C112.598 38.3425 113.666 37.6379 113.666 36.2659V7.19435Z"
    fill="#FA8A3A" />
  <path
    d="M147.221 7.19435C147.221 5.82235 146.153 5.11781 145.085 5.11781C144.018 5.11781 142.95 5.82235 142.95 7.19435V21.9897C142.95 23.3617 144.018 24.0662 145.085 24.0662C146.153 24.0662 147.221 23.3617 147.221 21.9897V7.19435ZM122.623 5.85943C121.441 5.85943 120.831 6.74938 120.831 7.60224C120.831 8.49219 121.441 9.34505 122.623 9.34505H131.89C132.92 9.34505 133.416 10.0496 133.416 10.8654C133.416 11.6812 132.92 12.3857 131.89 12.3857H125.14C121.784 12.3857 120.106 14.8701 120.106 17.4658C120.106 20.0615 121.784 22.5088 125.14 22.5088H137.534C138.717 22.5088 139.289 21.656 139.289 20.766C139.289 19.8761 138.717 18.9861 137.534 18.9861H125.827C124.797 18.9861 124.263 18.2445 124.263 17.3916C124.263 16.5388 124.797 15.7601 125.827 15.7601H132.5C135.856 15.7601 137.534 13.3498 137.534 10.8283C137.534 8.30678 135.856 5.85943 132.5 5.85943H122.623ZM127.848 31.8533C127.848 36.748 131.967 39.974 137.382 39.974C142.835 39.974 146.992 36.748 146.992 31.8533C146.992 26.9215 142.835 23.6954 137.382 23.6954C131.967 23.6954 127.848 26.9215 127.848 31.8533ZM132.043 31.8533C132.043 28.998 134.293 27.2552 137.382 27.2552C140.471 27.2552 142.721 28.998 142.721 31.8533C142.721 34.7456 140.471 36.4142 137.382 36.4142C134.293 36.4142 132.043 34.7456 132.043 31.8533Z"
    fill="#FA8A3A" />
</svg>