<svg width="36" height="36" viewBox="0 0 36 36" fill="none" xmlns="http://www.w3.org/2000/svg">
  <path
    d="M14.301 28.1435C6.68751 28.1435 0.493408 21.9559 0.493408 14.3504C0.493408 6.74484 6.68751 0.557251 14.301 0.557251C21.9146 0.557251 28.1087 6.74484 28.1087 14.3504C28.1087 21.9559 21.9146 28.1435 14.301 28.1435ZM14.301 3.31587C8.2105 3.31587 3.25494 8.26622 3.25494 14.3504C3.25494 20.4345 8.2105 25.3848 14.301 25.3848C20.3916 25.3848 25.3472 20.4345 25.3472 14.3504C25.3472 8.26622 20.393 3.31587 14.301 3.31587Z"
    fill="#595959" />
  <path
    d="M34.0352 35.4428C33.8538 35.443 33.6742 35.4074 33.5067 35.3381C33.3392 35.2687 33.187 35.167 33.059 35.0387L22.4354 24.4263C22.3072 24.2982 22.2055 24.1462 22.1361 23.9789C22.0667 23.8116 22.031 23.6322 22.031 23.4511C22.031 23.27 22.0667 23.0907 22.1361 22.9234C22.2055 22.756 22.3072 22.604 22.4354 22.476C22.5636 22.3479 22.7157 22.2463 22.8832 22.177C23.0507 22.1077 23.2303 22.072 23.4116 22.072C23.5929 22.072 23.7724 22.1077 23.9399 22.177C24.1074 22.2463 24.2596 22.3479 24.3878 22.476L35.0114 33.0884C35.2051 33.281 35.3371 33.5268 35.3908 33.7945C35.4444 34.0623 35.4172 34.3399 35.3126 34.5922C35.208 34.8445 35.0307 35.06 34.8033 35.2115C34.5759 35.3629 34.3085 35.4435 34.0352 35.4428Z"
    fill="#595959" />
</svg>